<?xml version="1.0" standalone="no"?>
<!DOCTYPE svg PUBLIC "-//W3C//DTD SVG 20010904//EN"
 "http://www.w3.org/TR/2001/REC-SVG-20010904/DTD/svg10.dtd">
<svg version="1.0" xmlns="http://www.w3.org/2000/svg"
 width="512.000000pt" height="512.000000pt" viewBox="0 0 512.000000 512.000000"
 preserveAspectRatio="xMidYMid meet">

<g transform="translate(0.000000,512.000000) scale(0.100000,-0.100000)"
fill="#000000" stroke="none">
<path d="M2452 5104 c-99 -26 -164 -65 -242 -144 -59 -60 -81 -91 -103 -146
-78 -189 -224 -351 -351 -389 -114 -35 -311 -14 -465 47 -137 55 -281 49 -418
-19 -222 -108 -321 -384 -225 -625 48 -120 65 -213 61 -341 -4 -98 -8 -119
-32 -168 -31 -64 -125 -163 -206 -218 -31 -21 -104 -61 -162 -89 -87 -42 -115
-61 -165 -114 -196 -210 -189 -485 16 -688 61 -60 90 -81 148 -105 182 -74
350 -225 387 -347 35 -116 15 -312 -47 -467 -55 -137 -49 -281 19 -418 108
-222 384 -321 624 -225 155 62 351 82 465 47 126 -37 278 -209 355 -399 31
-78 149 -200 231 -239 155 -74 281 -74 436 0 87 42 199 160 235 249 57 137
157 270 260 345 114 83 345 81 556 -3 137 -55 281 -49 418 19 222 108 321 384
225 624 -61 154 -82 351 -47 465 38 127 200 273 389 351 55 22 86 44 146 103
81 80 118 144 145 246 39 150 -9 313 -129 442 -50 53 -78 72 -165 114 -217
104 -348 224 -386 352 -35 114 -14 311 47 465 55 137 49 281 -19 418 -108 222
-384 321 -624 225 -154 -61 -351 -82 -465 -47 -127 38 -273 200 -351 389 -22
55 -44 86 -103 146 -134 135 -299 187 -458 144z m248 -1619 c360 -54 655 -311
759 -663 113 -378 -38 -806 -361 -1029 -175 -121 -324 -167 -538 -167 -307 -1
-567 129 -757 379 -173 227 -226 553 -136 839 120 380 481 648 883 655 30 0
98 -6 150 -14z"/>
</g>
</svg>
